<svg width="364" height="364" viewBox="0 0 364 364" fill="none" xmlns="http://www.w3.org/2000/svg">
<path fill-rule="evenodd" clip-rule="evenodd" d="M80.8861 30.6465C110.816 10.6652 146.003 7.16681e-05 182 4.29689e-10C205.9 -5.19106e-05 229.567 4.70344 251.648 13.8419C273.729 22.9805 293.793 36.375 310.693 53.261C327.594 70.1464 340.999 90.1931 350.146 112.255C359.293 134.318 364 157.964 364 181.844C364 217.81 353.326 252.967 333.328 282.871C313.329 312.776 284.905 336.083 251.649 349.847C218.393 363.61 181.798 367.212 146.494 360.195C111.189 353.179 78.7602 335.86 53.3069 310.428C27.8537 284.997 10.5198 252.596 3.49723 217.321C-3.52535 182.047 0.0787821 145.484 13.8539 112.256C27.629 79.0283 50.9564 50.6277 80.8861 30.6465ZM53.3709 267.717C36.3725 242.299 27.2995 212.415 27.2995 181.844C27.2997 140.85 43.5984 101.535 72.6103 72.5484C101.622 43.5613 140.971 27.2766 182 27.2766C212.596 27.2767 242.506 36.342 267.946 53.3262C293.386 70.3105 313.214 94.4505 324.923 122.694C336.632 150.938 339.695 182.016 333.726 211.999C327.757 241.982 313.023 269.523 291.388 291.14C269.753 312.757 242.188 327.478 212.179 333.442C182.171 339.406 151.066 336.345 122.798 324.646C94.5306 312.947 70.3696 293.136 53.3709 267.717ZM156.186 132.847C158.186 129.857 159.253 126.341 159.253 122.745C159.253 120.357 158.783 117.992 157.868 115.786C156.953 113.58 155.613 111.575 153.923 109.886C152.233 108.198 150.227 106.858 148.019 105.944C145.811 105.031 143.444 104.56 141.054 104.56C137.454 104.56 133.936 105.627 130.943 107.624C127.95 109.622 125.617 112.462 124.239 115.785C122.862 119.108 122.501 122.764 123.203 126.292C123.905 129.819 125.639 133.059 128.184 135.602C130.729 138.145 133.972 139.878 137.502 140.579C141.033 141.281 144.692 140.921 148.018 139.545C151.343 138.168 154.186 135.838 156.186 132.847ZM100.161 172.754C94.1957 181.454 91.0027 191.755 91.0027 202.301V245.49C91.0027 249.107 92.441 252.576 95.0008 255.134C97.5606 257.691 101.033 259.128 104.653 259.128C108.273 259.128 111.745 257.691 114.305 255.134C116.865 252.576 118.303 249.107 118.303 245.49V202.301C118.303 199.018 118.95 195.766 120.208 192.733C121.465 189.699 123.309 186.943 125.633 184.621C127.956 182.299 130.715 180.457 133.751 179.201C136.787 177.944 140.042 177.297 143.328 177.297C146.614 177.297 149.869 177.944 152.905 179.201C155.941 180.457 158.699 182.299 161.023 184.621C163.347 186.943 165.191 189.699 166.448 192.733C167.706 195.766 168.353 199.018 168.353 202.301V245.49C168.353 249.107 169.791 252.576 172.351 255.134C174.911 257.691 178.383 259.128 182.003 259.128C185.623 259.128 189.095 257.691 191.655 255.134C194.215 252.576 195.653 249.107 195.653 245.49V202.301C195.653 195.67 198.289 189.31 202.983 184.621C207.676 179.932 214.041 177.297 220.678 177.297C227.315 177.297 233.68 179.932 238.374 184.621C243.067 189.31 245.703 195.67 245.703 202.301V245.49C245.707 249.104 247.147 252.569 249.707 255.124C252.266 257.678 255.736 259.113 259.353 259.113C262.971 259.113 266.44 257.678 269 255.124C271.559 252.569 272.999 249.104 273.003 245.49V202.301C273.003 191.755 269.811 181.454 263.845 172.754C257.879 164.053 249.419 157.359 239.576 153.55C229.733 149.74 218.966 148.995 208.691 151.411C198.416 153.827 189.113 159.291 182.003 167.087C174.893 159.291 165.59 153.827 155.315 151.411C145.039 148.995 134.274 149.74 124.43 153.55C114.587 157.359 106.127 164.053 100.161 172.754ZM218.402 140.929C222.002 140.93 225.521 139.863 228.514 137.865C231.507 135.867 233.84 133.027 235.218 129.705C236.595 126.382 236.956 122.726 236.254 119.198C235.552 115.67 233.819 112.43 231.273 109.887C228.728 107.344 225.485 105.612 221.955 104.91C218.424 104.208 214.765 104.568 211.439 105.944C208.113 107.321 205.271 109.651 203.271 112.642C201.271 115.632 200.204 119.148 200.203 122.745C200.203 125.133 200.674 127.497 201.588 129.703C202.503 131.909 203.844 133.914 205.533 135.603C207.223 137.291 209.23 138.631 211.438 139.545C213.646 140.459 216.012 140.929 218.402 140.929Z" fill="url(#paint0_linear_16_163)"/>
<path opacity="0.4" d="M207.021 181.348C203.526 183.616 200.655 186.722 198.669 190.383C196.682 194.044 195.644 198.143 195.649 202.307C195.667 189.273 190.795 176.706 181.993 167.085C185.311 163.45 189.124 160.298 193.321 157.725C199.472 164.569 204.136 172.612 207.021 181.348Z" fill="#171B1F"/>
<defs>
<linearGradient id="paint0_linear_16_163" x1="29" y1="71" x2="349.5" y2="286.5" gradientUnits="userSpaceOnUse">
<stop stop-color="#816FB8"/>
<stop offset="1" stop-color="#3CACB8"/>
</linearGradient>
</defs>
</svg>
