<svg width="26" height="26" viewBox="0 0 26 26" fill="none" xmlns="http://www.w3.org/2000/svg">
<path fill-rule="evenodd" clip-rule="evenodd" d="M7.65455 0.243504C9.02496 0.180504 9.4619 0.166504 12.9527 0.166504C16.4436 0.166504 16.8805 0.181671 18.2498 0.243504C19.619 0.305337 20.5536 0.523504 21.3714 0.839671C22.2278 1.16284 23.0047 1.668 23.6473 2.32134C24.3015 2.96184 24.8062 3.7365 25.1287 4.59284C25.4464 5.4095 25.6637 6.34284 25.7268 7.70784C25.7899 9.07867 25.8039 9.515 25.8039 12.9998C25.8039 16.4858 25.7887 16.9222 25.7268 18.2907C25.6649 19.6557 25.4464 20.589 25.1287 21.4057C24.8062 22.2621 24.3007 23.0381 23.6473 23.6795C23.0047 24.3328 22.2278 24.8368 21.3714 25.1588C20.5536 25.4762 19.619 25.6932 18.2521 25.7562C16.8805 25.8192 16.4436 25.8332 12.9527 25.8332C9.4619 25.8332 9.02496 25.818 7.65455 25.7562C6.28765 25.6943 5.35302 25.4762 4.53522 25.1588C3.6776 24.8368 2.90057 24.332 2.25822 23.6795C1.60443 23.0386 1.09848 22.263 0.775665 21.4068C0.459059 20.5902 0.241757 19.6568 0.17867 18.2918C0.115582 16.921 0.101562 16.4847 0.101562 12.9998C0.101562 9.51384 0.11675 9.0775 0.17867 7.71017C0.240589 6.34284 0.459059 5.4095 0.775665 4.59284C1.09896 3.7366 1.60529 2.96104 2.25939 2.32017C2.90083 1.66742 3.67708 1.16219 4.53405 0.839671C5.35185 0.523504 6.28649 0.306504 7.65338 0.243504H7.65455ZM18.1458 2.5535C16.7906 2.49167 16.384 2.47884 12.9527 2.47884C9.52148 2.47884 9.11491 2.49167 7.7597 2.5535C6.50612 2.61067 5.82618 2.8195 5.37288 2.99567C4.77355 3.229 4.34479 3.5055 3.895 3.95467C3.46862 4.3689 3.14049 4.87317 2.93466 5.4305C2.75825 5.88317 2.54913 6.56217 2.49188 7.814C2.42996 9.16734 2.41711 9.57334 2.41711 12.9998C2.41711 16.4263 2.42996 16.8323 2.49188 18.1857C2.54913 19.4375 2.75825 20.1165 2.93466 20.5692C3.14028 21.1257 3.46857 21.6308 3.895 22.045C4.30974 22.4708 4.81561 22.7987 5.37288 23.004C5.82618 23.1802 6.50612 23.389 7.7597 23.4462C9.11491 23.508 9.52031 23.5208 12.9527 23.5208C16.3852 23.5208 16.7906 23.508 18.1458 23.4462C19.3994 23.389 20.0793 23.1802 20.5326 23.004C21.1319 22.7707 21.5607 22.4942 22.0105 22.045C22.4369 21.6308 22.7652 21.1257 22.9708 20.5692C23.1472 20.1165 23.3564 19.4375 23.4136 18.1857C23.4755 16.8323 23.4884 16.4263 23.4884 12.9998C23.4884 9.57334 23.4755 9.16734 23.4136 7.814C23.3564 6.56217 23.1472 5.88317 22.9708 5.4305C22.7372 4.832 22.4603 4.40384 22.0105 3.95467C21.5957 3.52892 21.0907 3.20125 20.5326 2.99567C20.0793 2.8195 19.3994 2.61067 18.1458 2.5535ZM11.3113 16.956C12.228 17.3371 13.2488 17.3885 14.1992 17.1015C15.1497 16.8145 15.9709 16.2069 16.5226 15.3825C17.0743 14.558 17.3222 13.5679 17.2241 12.5811C17.1259 11.5944 16.6878 10.6723 15.9845 9.97234C15.5361 9.52489 14.994 9.18228 14.3971 8.96918C13.8003 8.75607 13.1635 8.67776 12.5327 8.73989C11.9019 8.80202 11.2928 9.00304 10.7491 9.32849C10.2055 9.65393 9.74082 10.0957 9.38865 10.622C9.03648 11.1483 8.80554 11.746 8.71246 12.3721C8.61938 12.9982 8.66647 13.6372 8.85034 14.2429C9.03422 14.8487 9.3503 15.4062 9.77584 15.8753C10.2014 16.3445 10.7258 16.7136 11.3113 16.956ZM8.28192 8.3355C8.8953 7.72297 9.62349 7.23709 10.4249 6.90559C11.2263 6.57409 12.0853 6.40347 12.9527 6.40347C13.8202 6.40347 14.6792 6.57409 15.4806 6.90559C16.282 7.23709 17.0102 7.72297 17.6236 8.3355C18.2369 8.94803 18.7235 9.67521 19.0555 10.4755C19.3874 11.2758 19.5583 12.1336 19.5583 12.9998C19.5583 13.8661 19.3874 14.7238 19.0555 15.5242C18.7235 16.3245 18.2369 17.0516 17.6236 17.6642C16.3848 18.9012 14.7046 19.5962 12.9527 19.5962C11.2008 19.5962 9.5207 18.9012 8.28192 17.6642C7.04315 16.4271 6.34721 14.7493 6.34721 12.9998C6.34721 11.2504 7.04315 9.57256 8.28192 8.3355ZM21.0233 7.38584C21.1753 7.24265 21.297 7.07046 21.3811 6.87947C21.4653 6.68848 21.5102 6.48257 21.5133 6.27392C21.5163 6.06528 21.4774 5.85814 21.3989 5.66478C21.3203 5.47142 21.2037 5.29577 21.056 5.14822C20.9082 5.00067 20.7323 4.88422 20.5387 4.80577C20.345 4.72733 20.1376 4.68848 19.9287 4.69152C19.7197 4.69456 19.5135 4.73943 19.3223 4.82348C19.131 4.90753 18.9586 5.02905 18.8152 5.18084C18.5364 5.47604 18.3837 5.86815 18.3896 6.27392C18.3955 6.6797 18.5596 7.0672 18.8469 7.35415C19.1343 7.64111 19.5223 7.80494 19.9287 7.81085C20.335 7.81677 20.7277 7.66431 21.0233 7.38584Z" fill="#BBBBBB"/>
</svg>
