<svg width="26" height="25" viewBox="0 0 26 25" fill="none" xmlns="http://www.w3.org/2000/svg">
<path d="M5.44046 0C2.90822 0 0.869263 2.03612 0.869263 4.56485V20.4352C0.869263 22.9639 2.90822 25 5.44046 25H14.054V15.2266H11.466V11.7078H14.054V8.70158C14.054 6.3397 15.5831 4.1711 19.1055 4.1711C20.5317 4.1711 21.5863 4.30783 21.5863 4.30783L21.5034 7.59378C21.5034 7.59378 20.4278 7.58363 19.2542 7.58363C17.9839 7.58363 17.7803 8.16807 17.7803 9.13832V11.7079H21.6043L21.4377 15.2266H17.7803V25.0001H21.3328C23.8651 25.0001 25.904 22.9639 25.904 20.4352V4.56488C25.904 2.03615 23.8651 2.5e-05 21.3328 2.5e-05H5.44044L5.44046 0Z" fill="#BBBBBB"/>
</svg>
