<svg width="29" height="24" viewBox="0 0 29 24" fill="none" xmlns="http://www.w3.org/2000/svg">
<path d="M28.5962 3.17147C27.551 3.63397 26.4282 3.94647 25.2478 4.08772C26.4657 3.35996 27.3769 2.21455 27.8113 0.865218C26.667 1.54396 25.4147 2.02171 24.1087 2.27772C23.2304 1.3413 22.0672 0.720626 20.7995 0.512061C19.5318 0.303496 18.2306 0.518708 17.098 1.12428C15.9654 1.72986 15.0646 2.69192 14.5356 3.8611C14.0066 5.03028 13.8789 6.34116 14.1724 7.59022C11.8538 7.47396 9.58555 6.87215 7.51492 5.82385C5.44429 4.77554 3.61753 3.30417 2.15319 1.50522C1.6525 2.36772 1.3646 3.36772 1.3646 4.43272C1.36404 5.39146 1.60047 6.33552 2.0529 7.18113C2.50534 8.02675 3.15979 8.74777 3.9582 9.28022C3.03226 9.2508 2.12675 9.00095 1.31703 8.55147V8.62647C1.31694 9.97114 1.78272 11.2744 2.63534 12.3152C3.48796 13.356 4.67491 14.0701 5.99478 14.3365C5.13582 14.5686 4.23526 14.6028 3.36112 14.4365C3.73351 15.5935 4.45889 16.6053 5.43571 17.3301C6.41253 18.055 7.59189 18.4567 8.80869 18.479C6.74311 20.0982 4.19213 20.9766 1.56613 20.9727C1.10096 20.9728 0.636181 20.9457 0.174194 20.8915C2.83974 22.6029 5.94263 23.5112 9.11161 23.5077C19.839 23.5077 25.7034 14.6352 25.7034 6.94022C25.7034 6.69022 25.6971 6.43772 25.6859 6.18772C26.8266 5.36394 27.8112 4.34384 28.5937 3.17522L28.5962 3.17147Z" fill="#BBBBBB"/>
</svg>
