<svg width="41" height="34" viewBox="0 0 41 34" fill="none" xmlns="http://www.w3.org/2000/svg">
<path fill-rule="evenodd" clip-rule="evenodd" d="M14.3383 6.22221C14.7781 5.56442 15.0129 4.79105 15.0129 3.99994C15.0129 3.47466 14.9094 2.95456 14.7082 2.46927C14.5071 1.98397 14.2122 1.54294 13.8405 1.17152C13.4688 0.800093 13.0274 0.505442 12.5417 0.304424C12.056 0.103405 11.5355 4.56867e-06 11.0097 4.56867e-06C10.2179 -9.5143e-05 9.44389 0.234526 8.78557 0.673956C8.12716 1.11348 7.61399 1.73818 7.31099 2.46906C7.00799 3.19995 6.92862 4.00423 7.08307 4.78019C7.23751 5.55604 7.61878 6.26878 8.17866 6.82826C8.73854 7.38765 9.45188 7.76864 10.2284 7.923C11.005 8.07735 11.81 7.99818 12.5415 7.69545C13.273 7.39263 13.8983 6.88001 14.3383 6.22221ZM2.01459 15.0003C0.702345 16.9142 0 19.1799 0 21.4998V31C0 31.7957 0.31638 32.5588 0.879455 33.1213C1.44253 33.6839 2.20628 34 3.00257 34C3.79896 34 4.56261 33.6839 5.12578 33.1213C5.68886 32.5588 6.00514 31.7957 6.00514 31V21.4998C6.00514 20.7776 6.1476 20.0624 6.42415 19.3951C6.70079 18.7278 7.10633 18.1215 7.61749 17.6108C8.12865 17.1001 8.73545 16.6949 9.40335 16.4185C10.0712 16.1421 10.787 15.9998 11.5099 15.9998C12.2328 15.9998 12.9486 16.1421 13.6164 16.4185C14.2843 16.6949 14.8911 17.1001 15.4023 17.6108C15.9135 18.1215 16.319 18.7278 16.5956 19.3951C16.8723 20.0624 17.0147 20.7776 17.0147 21.4998V31C17.0147 31.7957 17.3309 32.5587 17.8941 33.1213C18.4572 33.6839 19.2208 34 20.0172 34C20.8135 34 21.5773 33.6839 22.1403 33.1213C22.7034 32.5587 23.0197 31.7957 23.0197 31V21.4998C23.0197 20.0412 23.5996 18.6422 24.632 17.6107C25.6643 16.5793 27.0645 15.9998 28.5244 15.9998C29.9844 15.9998 31.3846 16.5793 32.417 17.6107C33.4493 18.6422 34.0292 20.0412 34.0292 21.4998V31C34.0301 31.7951 34.3469 32.5573 34.9099 33.1191C35.4728 33.6811 36.2361 33.9967 37.0318 33.9967C37.8276 33.9967 38.5907 33.6811 39.1538 33.1191C39.7168 32.5573 40.0335 31.7951 40.0343 31V21.4998C40.0343 19.1799 39.3321 16.9142 38.0198 15.0003C36.7075 13.0865 34.8466 11.6139 32.6813 10.776C30.5162 9.93817 28.148 9.77424 25.8878 10.3057C23.6276 10.8371 21.5812 12.0391 20.0172 13.7538C18.4532 12.0391 16.4068 10.8371 14.1466 10.3057C11.8864 9.77424 9.51827 9.93817 7.35302 10.776C5.18778 11.6139 3.32683 13.0865 2.01459 15.0003ZM28.0239 7.99997C28.8157 8.00007 29.5897 7.76555 30.2481 7.32602C30.9065 6.88649 31.4197 6.2618 31.7227 5.53091C32.0258 4.80002 32.1051 3.99575 31.9506 3.21979C31.7962 2.44384 31.415 1.7311 30.8551 1.17172C30.2952 0.612234 29.5819 0.231235 28.8053 0.0768816C28.0287 -0.0774721 27.2237 0.00169879 26.4922 0.304424C25.7606 0.607148 25.1353 1.11987 24.6954 1.77767C24.2556 2.43546 24.0207 3.20883 24.0206 3.99994C24.0206 4.52522 24.1242 5.04532 24.3253 5.53061C24.5265 6.01591 24.8214 6.45694 25.1931 6.82836C25.5648 7.19979 26.0062 7.49443 26.4919 7.69545C26.9776 7.89647 27.4981 7.99997 28.0239 7.99997Z" fill="#0092FF" fill-opacity="0.6"/>
<path opacity="0.4" d="M25.3319 17.3971C24.5632 17.896 23.9315 18.5792 23.4947 19.3845C23.0577 20.1898 22.8293 21.0914 22.8303 22.0074C22.8343 19.1403 21.7626 16.3759 19.8265 14.2597C20.5564 13.46 21.3952 12.7668 22.3184 12.2007C23.6713 13.7062 24.6974 15.4755 25.3319 17.3971Z" fill="#171B1F"/>
</svg>
